<?xml version="1.0" encoding="UTF-8" standalone="no"?>
<svg
   class="svg svg--logohazbinmobile"
   width="1000"
   height="572.5224"
   viewBox="0 0 1000 572.5224"
   fill="none"
   version="1.1"
   id="svg91"
   sodipodi:docname="image.svg"
   inkscape:version="1.2.2 (732a01da63, 2022-12-09)"
   xmlns:inkscape="http://www.inkscape.org/namespaces/inkscape"
   xmlns:sodipodi="http://sodipodi.sourceforge.net/DTD/sodipodi-0.dtd"
   xmlns="http://www.w3.org/2000/svg"
   xmlns:svg="http://www.w3.org/2000/svg">
  <defs
     id="defs95" />
  <sodipodi:namedview
     id="namedview93"
     pagecolor="#ffffff"
     bordercolor="#111111"
     borderopacity="1"
     inkscape:showpageshadow="0"
     inkscape:pageopacity="0"
     inkscape:pagecheckerboard="1"
     inkscape:deskcolor="#d1d1d1"
     showgrid="false"
     inkscape:zoom="0.6"
     inkscape:cx="450.83333"
     inkscape:cy="301.66667"
     inkscape:window-width="1366"
     inkscape:window-height="705"
     inkscape:window-x="-8"
     inkscape:window-y="-8"
     inkscape:window-maximized="1"
     inkscape:current-layer="svg91" />
  <path
     id="path11"
     mask="none"
     style="display:inline;fill:#ff0836;fill-opacity:1;stroke-width:8.06448"
     class="svg svg--logohazbinmobile__bg-stroke"
     d="m 499.94297,0 c -20.47487,0 -78.02623,0.66120636 -122.73806,45.794836 -0.22178,0.220966 -0.49879,0.330078 -0.7754,0.330078 h -157.4333 c -0.55323,0 -0.99694,0.386692 -1.10743,0.937503 l -1.49413,8.431619 C 215.6753,59.352081 197.96814,150.28001 91.666356,175.46453 l -16.656215,3.91405 c -0.830641,0.22097 -1.162752,1.26661 -0.554674,1.87306 2.766921,2.58949 8.632456,8.43192 11.343733,12.78512 3.818522,6.17254 10.516238,17.80026 12.121068,38.6308 0,0.5508 -0.333466,1.1032 -0.886713,1.21288 -16.711997,2.75563 -46.647662,11.51767 -64.134655,39.0175 -0.110483,0.16533 -0.222498,0.27444 -0.388627,0.33008 L 0.58064226,290.97214 c -0.77418968,0.44113 -0.77418968,1.48936 0,1.92968 L 32.564958,310.64593 c 0,0 0.278145,0.22153 0.388627,0.33202 17.486187,27.49903 47.423465,36.25992 64.134655,39.01555 0.554029,0.11048 0.942359,0.66129 0.886714,1.21289 -1.770951,20.77568 -11.234355,27.93941 -11.234355,27.93941 l -12.285132,12.12496 c -0.608062,0.60645 -0.331773,1.65289 0.498062,1.87305 l 16.712859,3.96875 C 197.96817,422.29708 215.73098,513.22501 216.39468,517.08305 l 1.55078,8.43163 c 0.11048,0.49596 0.55226,0.8828 1.10546,0.8828 h 8.57812 148.80052 c 0.27661,0 0.55362,0.10992 0.7754,0.33008 44.71183,45.1344 102.26319,45.79484 122.73806,45.79484 h 0.0548 0.0548 c 10.23716,0 29.74404,-0.16597 52.27921,-5.97265 h 0.002 c 22.53596,-5.80712 48.10099,-17.25499 70.45691,-39.82219 0.22177,-0.22016 0.49878,-0.33008 0.7754,-0.33008 h 157.37668 c 0.55645,0 1.00064,-0.38669 1.10548,-0.93749 l 1.54878,-8.43163 c 0.72581,-3.85723 18.42643,-94.78791 124.73219,-119.97245 l 16.71097,-3.96678 c 0.83064,-0.22016 1.16128,-1.26741 0.49999,-1.87305 0,0 -10.07317,-8.4865 -13.16992,-12.34372 -0.77419,-0.96452 -1.69661,-1.88524 -2.67387,-3.04687 -2.93151,-3.48492 -6.34722,-9.14672 -7.67181,-24.72847 0,-0.5508 0.33065,-1.10321 0.88669,-1.21289 16.70959,-2.75564 46.64501,-11.51768 64.12879,-39.01751 0.1129,-0.16533 0.22581,-0.27444 0.3871,-0.33008 l 31.99209,-17.74412 c 0.7742,-0.44113 0.7742,-1.48936 0,-1.92969 l 0.0484,0.10936 -31.98234,-17.74412 c 0,0 -0.27419,-0.2204 -0.38629,-0.33007 -17.48378,-27.49983 -47.41896,-36.26187 -64.13662,-39.01751 -0.54837,-0.10968 -0.93732,-0.60644 -0.88087,-1.21288 1.60482,-20.83053 8.29874,-32.5139 12.11324,-38.6308 2.71773,-4.35319 8.58157,-10.19563 11.34768,-12.78512 0.60484,-0.60645 0.33065,-1.65209 -0.55645,-1.87305 l -16.65427,-3.91405 C 802.02318,150.28001 784.2661,59.352081 783.59675,55.494036 l -1.49218,-8.431619 c -0.1129,-0.550803 -0.54919,-0.937503 -1.10548,-0.937503 H 623.5658 c -0.27661,0 -0.55363,-0.109112 -0.7754,-0.330078 C 578.13422,0.66123862 520.58386,0 500.10898,0 h -0.11129 z m -0.0564,22.650347 c 20.19826,0 71.33041,0.6054 109.84551,42.488206 l 3.37499,3.691401 h 149.35324 c 0.49999,0 0.88733,0.275563 1.05661,0.771447 7.58061,26.286941 35.40998,95.723959 123.17559,123.443139 0.60483,0.22097 0.94435,0.82716 0.66209,1.4336 -4.81449,10.63623 -9.40358,30.97119 -8.29882,50.09366 l 0.55645,9.42381 c 0,0.5508 0.49273,1.04687 1.04877,1.04687 l 9.459,0.22073 c 0.44354,0 42.05615,1.43289 59.3222,32.73432 l 2.16209,3.85741 0.21693,0.10936 -2.37886,3.96874 h 0.22661 c -17.26604,31.30144 -58.87841,32.73432 -59.26551,32.73432 l -9.52536,0.16605 c -0.54838,0 -1.04708,0.44039 -1.10353,1.04686 l -0.54839,9.42383 c -1.1129,19.06762 3.42764,28.87571 8.24213,38.74015 0.27419,0.60565 -8e-4,1.32297 -0.66209,1.48828 -87.70916,27.71919 -115.60474,97.21185 -123.18535,123.44315 -0.10484,0.49596 -0.54678,0.77144 -1.04685,0.77144 H 613.21816 l -3.37694,3.69141 c -38.56994,41.88281 -89.64611,42.43531 -109.84356,42.49015 -20.19826,0 -71.32846,-0.60734 -109.84355,-42.49015 l -3.375,-3.69139 h -149.3552 c -0.49758,0 -0.88661,-0.27548 -1.05273,-0.77144 -7.58061,-26.2313 -35.41468,-95.72395 -123.17947,-123.44315 -0.66371,-0.22095 -0.94069,-0.93747 -0.66403,-1.48827 4.81449,-9.86445 9.35252,-19.67254 8.24608,-38.74016 l -0.55274,-9.42382 c 0,-0.55081 -0.49855,-1.04687 -1.10742,-1.04687 l -9.51756,-0.16605 c -0.38709,0 -42.002257,-1.43288 -59.267477,-32.73432 l -2.378899,-3.96874 0.220724,-0.10935 2.158199,-3.85742 C 67.593807,256.69612 109.208,255.26323 109.65074,255.26323 l 9.46288,-0.22072 c 0.55403,0 1.05079,-0.44121 1.05079,-1.04688 l 0.55274,-9.4238 c 1.10724,-19.12247 -3.48515,-39.51309 -8.29882,-50.09367 -0.27742,-0.60644 3.5e-4,-1.26827 0.66403,-1.43359 87.76479,-27.71918 115.59805,-97.211848 123.17946,-123.443144 0.11049,-0.495966 0.55242,-0.771448 1.05079,-0.771448 h 149.3552 l 3.375,-3.691401 C 428.61274,23.255763 479.6889,22.705209 499.88636,22.650371 Z m 52.1835,27.277298 c -10.40315,11.573306 -20.47475,22.814999 -30.93355,34.497981 h 18.31638 v 10.966783 l 0.0548,0.05484 h 12.50779 V 84.425626 h 3.32031 V 82.93735 h -3.26562 z m -47.22258,0.220725 c -3.64533,-0.09645 -7.31095,0.716771 -10.93552,2.480463 -4.4274,2.149184 -6.69726,6.006333 -6.69726,10.966776 -0.0557,4.022553 3.0993,7.384342 6.97264,7.660147 4.20563,0.275805 7.80224,-2.535076 8.35547,-6.613273 0.55322,-3.967714 -1.99177,-7.879711 -6.03124,-8.540998 -1.82662,-0.275805 -3.81779,0.219596 -5.69921,0.33008 0.77499,-0.606449 1.5491,-1.432461 2.49022,-2.093749 3.20967,-2.258851 6.86196,-2.921871 10.67967,-2.921871 2.49031,-0.05484 3.04297,0.496771 3.04297,2.976557 v 18.902309 c 0,2.755631 -0.33282,2.920476 -2.9336,3.802731 -3.48626,1.21209 -7.13712,2.369802 -10.23631,4.298816 -5.03544,3.141114 -7.41426,7.988856 -7.08201,13.996075 h 24.62496 c 3.20964,-3.63707 6.36231,-7.217963 9.79295,-11.130839 h -2.32226 -20.4199 c -1.16207,0 -2.26929,-0.110887 -2.60155,-1.488282 -0.33145,-1.377413 0.71984,-1.983652 1.77148,-2.369134 2.82257,-0.937092 5.58839,-1.765031 8.41014,-2.646478 3.04352,-0.991932 6.31009,-1.708524 9.18749,-3.085937 4.37174,-2.039497 6.47368,-5.786729 6.52928,-10.636697 0.11048,-4.794322 -1.82741,-8.650473 -6.08788,-10.910138 -3.5415,-1.873781 -7.16519,-2.880082 -10.81053,-2.976558 z m -39.49016,1.322267 c -2.98868,3.967714 -2.82235,9.866145 -8.63279,11.574193 0.55322,1.157252 0.99576,2.203231 1.49414,3.249999 -2.65644,5.675762 -5.25764,11.353653 -7.91406,16.974577 -1.8258,3.912875 -3.70645,7.826194 -5.58788,11.738264 0.49839,0.165322 0.99576,0.274273 1.49415,0.384755 1.38304,-3.196749 2.82104,-6.447765 4.25975,-9.644516 h 16.87887 c 1.4387,3.196751 2.82105,6.447767 4.25976,9.644516 h 14.00194 c -0.11049,-0.441126 -0.22331,-0.8266 -0.38871,-1.212889 -5.479,-11.73782 -10.90069,-23.474205 -16.37888,-35.212831 -1.16208,-2.479818 -2.32423,-4.961419 -3.48632,-7.496076 z m 73.98424,14.439428 v 17.02731 h -15.2734 c 5.14672,-5.731414 10.07182,-11.240259 15.2734,-17.02731 z m -80.40416,1.818354 h 0.0565 c 2.65563,5.7306 5.14624,11.077412 7.69139,16.58786 h -15.43942 c 2.54513,-5.510448 5.03495,-10.85726 7.69138,-16.58786 z M 248.6585,74.341685 c -5.03625,0 -9.13085,4.077294 -9.13085,9.091785 0,5.015289 4.0946,9.093728 9.13085,9.093728 5.03546,0 9.12888,-4.078439 9.12888,-9.093728 0,-5.014491 -4.09342,-9.091785 -9.12888,-9.091785 z m 502.40533,0 c -5.0403,0 -9.13664,4.077294 -9.13664,9.091785 0,5.015289 4.09634,9.093728 9.13664,9.093728 5.03224,0 9.12891,-4.078439 9.12891,-9.093728 0,-5.014491 -4.09667,-9.091785 -9.12891,-9.091785 z M 369.45711,110.10724 c -4.09433,0 -46.37101,149.01342 -46.37101,149.01342 h 20.52926 l 15.71677,-62.10732 21.69136,0.27541 15.38278,60.56434 h 20.4199 c 0,0 -41.39249,-147.74584 -47.36906,-147.74585 z m -71.71667,1.81836 v 66.73621 h -35.91205 v -65.46863 h -20.69722 v 146.64427 h 21.02925 v -66.84753 h 34.7519 v 66.84753 h 22.52144 V 111.92558 Z m 236.34138,2.99414 c -3.93206,-0.0476 -8.09745,0.0861 -12.50194,0.42185 v 136.72436 c 0,0 71.77136,-2.75442 71.77136,-41.32999 0,-33.0103 -37.24212,-36.3183 -37.24212,-36.3183 h 0.0565 c 0,0 32.15033,-8.87096 32.15033,-26.06441 0,-15.5823 -16.22433,-32.97565 -54.23428,-33.43353 z m -118.47244,0.97265 v 18.46286 h 63.36121 l -59.65438,95.06231 v 19.39645 h 91.52718 v -19.39645 h -67.56628 l 60.2616,-95.44905 v -18.07614 h -87.82015 z m 263.89989,1.10351 v 133.41774 h 20.86135 v -91.92173 l 43.88858,90.81819 h 14.66008 V 117.54666 h -19.14456 v 83.98618 l -42.22647,-84.53696 z m -76.15414,4.66601 c -6.33428,-0.0129 -10.55661,0.003 -10.55661,0.0726 v 13.77732 h 24.18159 v 98.91975 h -19.14645 v 15.43162 h 61.09362 v -15.43162 h -20.25404 v -99.19547 h 21.68942 v -13.22459 c 0,0 -38.00485,-0.31081 -57.00771,-0.3496 z m -60.36123,8.11913 c 0,0 20.53196,3.58106 20.80857,14.98826 0.27661,11.40718 -20.80857,14.16404 -20.80857,14.16404 z M 369.62294,148.572 c 0.82983,0 9.90623,31.46674 9.90623,31.46674 l -18.80074,-0.16403 c 0.0282,-0.10863 8.06611,-31.30268 8.89451,-31.30268 z m 173.37078,37.52923 c 0,0 28.44478,5.29135 28.998,21.10738 0.55322,15.59588 -28.998,21.93355 -28.998,21.93355 v -0.0565 z m -410.43286,7.99217 c -5.03627,0 -9.13279,4.0765 -9.13279,9.09179 0,5.01448 4.09652,9.09373 9.13279,9.09373 5.03545,0 9.13085,-4.07925 9.13085,-9.09373 0,-5.01529 -4.0954,-9.09179 -9.13085,-9.09179 z m 731.4948,0 c -5.03223,0 -9.1289,4.0765 -9.1289,9.09179 0,5.01448 4.09667,9.09373 9.1289,9.09373 5.0403,0 9.13674,-4.07925 9.13674,-9.09373 0,-5.01529 -4.09644,-9.09179 -9.13674,-9.09179 z m -364.00331,64.20106 c -21.58133,-0.0548 -37.57417,9.97475 -49.24992,27.60932 -14.66442,-7.43948 -46.64734,-20.77604 -50.35537,-20.94136 l -0.0564,0.22072 c 0.27661,8.48623 3.76446,15.70545 8.68943,22.31832 5.03545,6.66851 11.95155,10.85636 19.86521,13.77731 -0.55403,0.11048 -0.99672,0.27524 -1.43946,0.33008 -5.42335,0.71693 -10.5701,2.37073 -15.43942,4.79492 -1.54919,0.77176 -3.209,1.43312 -4.37109,2.81054 -0.44273,0.55161 -0.49757,0.88264 0,1.48828 4.15079,5.12577 8.63312,9.97492 14.11131,13.77731 7.08303,4.90481 14.99596,7.82568 23.46285,9.7539 -1.66048,0.38628 -3.15421,0.49612 -4.48241,1.15819 -2.54516,1.26693 -3.20943,4.07643 -1.38282,6.28124 1.16128,1.43225 2.65492,2.47973 4.25976,3.41602 7.08302,4.13383 14.88681,5.78638 23.02144,6.17187 4.4274,0.22015 8.9632,0.16515 13.39061,-0.49613 0.55322,-0.11048 0.88634,0.11056 1.27343,0.49613 1.88144,1.98384 3.98452,3.69346 6.14256,5.40232 1.4387,1.15725 3.48573,1.92907 4.20508,3.36132 0.71934,1.43305 0.2208,3.58184 0.16605,5.40039 -0.0557,0.99194 0.22079,1.26757 1.21679,1.26757 5.09109,-0.0556 10.1823,-0.0565 15.27341,-0.0565 0.33226,0 0.72047,0.11105 1.05273,-0.33008 v -6.44726 c 0,-0.60564 0.16476,-0.99132 0.71871,-1.43164 3.04354,-2.20481 5.97636,-4.5207 8.6328,-7.22068 0.27661,-0.33064 0.55338,-0.54992 0.99609,-0.43943 1.21773,0.33064 2.4893,0.21959 3.70702,0.33007 9.1306,0.71612 18.09627,0.0548 26.72847,-3.08594 3.59675,-1.32257 7.02783,-2.97578 9.84959,-5.67577 2.82257,-2.81046 1.99056,-6.17265 -1.8828,-7.38475 -0.55323,-0.16533 -1.0503,-0.27621 -1.60352,-0.3867 -0.49758,-0.10966 -0.99733,-0.22119 -1.88281,-0.44144 15.05154,-3.03143 27.11534,-10.19477 36.41205,-21.98824 2.04756,-2.5903 2.04743,-3.08505 -0.9961,-4.73827 -4.09513,-2.20401 -8.41117,-3.96885 -13.00388,-5.01562 -1.93708,-0.44113 -3.87319,-0.77065 -6.03124,-1.21094 14.72008,-5.51125 23.51809,-14.8258 27.61324,-29.26361 0.60886,-2.25967 1.16258,-4.5185 0.60934,-7.43945 -16.93378,7.16449 -34.0883,13.1156 -50.0253,21.49215 -11.67655,-17.68939 -27.6139,-27.664 -49.19522,-27.664 z m 2.21484,18.79099 -0.0565,0.0548 c 10.73542,0.49597 21.19464,5.40057 27.89057,16.80857 2.8774,4.95965 4.37154,10.41504 3.70702,16.14645 -1.21693,10.02978 -6.25352,17.8552 -14.94137,23.20114 -5.64433,3.52658 -11.8968,5.40037 -18.53708,5.40037 -6.9169,0 -13.44623,-1.81773 -19.36716,-5.67577 -9.18623,-5.95158 -14.44517,-14.16199 -14.49997,-25.12886 -0.0557,-10.96606 5.20251,-19.23391 14.22264,-25.1855 5.69914,-3.74675 12.39575,-5.62108 21.58198,-5.62108 z m 121.18728,1.77147 c -8.31204,-0.0815 -15.10457,5.25657 -15.1699,11.92186 -0.0653,6.66447 6.61958,12.13418 14.93162,12.21482 8.31286,0.0807 15.10376,-5.25657 15.16989,-11.92186 0.0653,-6.66528 -6.61875,-12.13417 -14.93161,-12.21482 z m -392.2454,0.0371 c -8.31285,-0.0814 -15.10261,5.25658 -15.16793,11.92186 -0.0661,6.66528 6.61875,12.13418 14.9316,12.21482 8.31205,0.0807 15.10458,-5.25657 15.1699,-11.92185 0.0653,-6.66529 -6.62152,-12.13418 -14.93357,-12.21483 z m 48.45109,0.44726 c -8.31204,-0.0815 -15.10458,5.25737 -15.16989,11.92186 -0.0653,6.66528 6.62152,12.13336 14.93356,12.21482 8.31286,0.0806 15.10263,-5.25657 15.16795,-11.92186 0.0661,-6.66528 -6.61957,-12.13418 -14.93162,-12.21482 z m 392.24343,0.0193 c -8.31447,-0.0806 -15.10541,5.25543 -15.16984,11.9199 -0.0645,6.6653 6.62101,12.13533 14.93549,12.21678 8.30641,0.0806 15.10533,-5.25737 15.16992,-11.92185 0.0645,-6.66528 -6.62109,-12.13338 -14.93557,-12.21483 z m 48.45113,0.44726 c -8.31448,-0.0806 -15.1054,5.25658 -15.16992,11.92186 -0.0645,6.66528 6.62101,12.13417 14.93549,12.21482 8.3064,0.0814 15.1054,-5.25657 15.16992,-11.92186 0.0645,-6.66447 -6.62102,-12.13417 -14.93549,-12.21482 z m -392.24347,0.0371 c -8.31205,-0.0807 -15.10458,5.25739 -15.1699,11.92186 -0.0653,6.66528 6.61957,12.13337 14.93162,12.21482 8.31285,0.0807 15.10457,-5.25738 15.16989,-11.92185 0.0661,-6.66529 -6.61957,-12.13337 -14.93161,-12.21483 z m 440.69452,0.46678 c -8.31447,-0.0806 -15.10339,5.25657 -15.16791,11.92185 -0.0645,6.6653 6.62102,12.13223 14.93549,12.21288 8.30641,0.0814 15.09533,-5.25462 15.16791,-11.91991 0.0645,-6.66529 -6.62101,-12.13419 -14.93549,-12.21482 z m -392.24344,0.0355 c -8.31285,-0.0807 -15.10457,5.25658 -15.16989,11.92186 -0.0653,6.66529 6.61957,12.13418 14.93161,12.21482 8.31205,0.0814 15.10457,-5.25657 15.16989,-11.92185 0.0653,-6.66449 -6.61956,-12.13418 -14.93161,-12.21483 z m -276.597161,8.36718 -16.599578,2.31444 v -0.0548 c -1.106438,0.16533 -1.106438,1.10031 0,1.26563 l 16.599578,2.31445 h 94.628741 v -5.83983 z m 705.494851,0 v 5.83984 h 94.62872 l 16.59564,-2.31446 c 1.10484,-0.16532 1.10484,-1.1003 0,-1.26562 v 0.0548 l -16.59564,-2.31445 z m -294.8823,4.6621 c -0.92925,-0.0161 -1.96799,0.26693 -3.10937,0.9043 -0.94111,0.55081 -1.71618,1.32182 -2.43554,2.14843 -2.26933,2.5895 -4.03908,5.50954 -5.20116,9.09178 l -0.11137,0.0564 c -0.49758,-1.21209 -0.88359,-2.14981 -1.27149,-3.03125 -1.21692,-2.75561 -2.93358,-5.18003 -5.14648,-7.21874 -3.65239,-3.36127 -7.91379,-2.31623 -9.29685,2.75391 -1.05161,3.63706 -0.11008,7.10999 1.82617,10.1406 3.70804,5.8419 7.96759,11.29829 12.89255,16.2031 0.66452,0.71604 1.16166,0.60467 1.82617,-0.0564 5.42255,-5.29029 10.07219,-11.13125 13.72459,-17.74411 1.66047,-3.03143 2.04796,-6.28269 0.77539,-9.42381 -0.91314,-2.31087 -2.42832,-3.7891 -4.47264,-3.82421 z M 398.0662,340.95649 c -23.57405,0 -37.13048,17.63551 -42.16593,38.30072 l -10.84569,2.42577 c -0.66371,0.16532 -1.10742,0.66096 -1.10742,1.32227 0,0.66129 0.4437,1.15694 1.10742,1.32226 l 9.46092,2.09374 c -0.55323,3.80241 -0.82813,7.71516 -0.82813,11.51756 0,27.44418 13.88789,56.92763 44.37883,56.92763 30.49015,0 44.38078,-29.53908 44.38078,-56.92763 0,-3.85804 -0.27685,-7.71515 -0.83008,-11.51756 l 9.46288,-2.09374 c 0.66371,-0.16532 1.16211,-0.66096 1.16211,-1.32226 0,-0.66129 -0.44274,-1.15695 -1.16211,-1.32227 l -10.84569,-2.42586 C 435.25348,358.59191 421.63946,340.9564 398.0662,340.9564 Z m -163.90791,0.11137 v 15.20896 h 9.07616 v 20.72067 l -12.11913,2.70116 c -0.66451,0.16532 -1.1621,0.66096 -1.1621,1.32226 0,0.66129 0.44274,1.15695 1.1621,1.32227 l 12.11913,2.69922 v 50.5917 h -9.07616 v 15.20896 h 33.86712 V 435.6341 h -9.07615 v -45.18937 c 0,-0.99193 0.77564,-1.76367 1.7168,-1.76367 h 30.98822 c 0.94032,0 1.71485,0.77177 1.71485,1.76367 v 45.18937 h -9.07421 v 15.20896 h 33.86517 v -15.20894 h -9.0742 v -50.5917 l 12.11717,-2.69922 c 0.66451,-0.16532 1.16211,-0.66097 1.16211,-1.32227 0,-0.66129 -0.44274,-1.15694 -1.16211,-1.32226 l -12.11717,-2.70129 v -20.72067 h 9.0742 v -15.20896 h -33.86517 v 15.20896 h 9.07421 V 371.597 c 0,0.99194 -0.77452,1.76367 -1.71485,1.76367 h -30.98822 c -0.94113,0 -1.7168,-0.77169 -1.7168,-1.76367 v -15.32029 h 9.07615 v -15.20896 z m 336.83729,1.98242 v 15.2109 h 14.332 c 0.94114,0 1.71485,0.77178 1.71485,1.76368 v 19.6191 l -9.24022,2.03906 c -0.66371,0.16532 -1.16211,0.66097 -1.16211,1.32227 0,0.66129 0.44274,1.15694 1.16211,1.32226 l 9.24022,2.03906 v 49.48623 c 0,0.99193 -0.7737,1.76367 -1.71485,1.76367 h -14.332 v 15.21092 h 84.77914 v -34.8847 h -15.44137 v 3.80272 c 0,7.3298 -0.11194,13.50247 -1.60547,14.93552 -0.94111,0.93708 -3.76339,0.9357 -7.74803,0.88086 h -26.72651 c -0.94113,0 -1.7168,-0.77177 -1.7168,-1.76367 v -33.17572 c 0,-0.99193 0.77564,-1.76367 1.7168,-1.76367 h 14.71872 v 11.79491 h 15.43942 V 375.5092 h -15.43942 v 10.08592 h -14.71872 c -0.94113,0 -1.7168,-0.77176 -1.7168,-1.76366 v -23.8066 c 0,-0.99194 0.77564,-1.76368 1.7168,-1.76368 h 22.63277 c 6.93544,0 10.40232,4.40886 10.40232,13.22655 v 5.01366 h 15.43943 v -33.45111 z m 118.25566,0.0548 v 15.21091 h 12.83785 v 21.43746 l -8.85544,1.98437 c -0.66129,0.16532 -1.16016,0.66096 -1.16016,1.32227 0,0.66129 0.44274,1.15695 1.16016,1.32226 l 8.85544,1.98437 v 49.54288 c 0,0.99193 -0.775,1.76171 -1.71871,1.76171 h -15.60355 v 15.21091 h 85.27329 v -35.21477 h -12.66986 l -0.11129,-0.0548 -2.76756,0.11129 v 4.18748 c 0,7.32981 -8e-5,12.17785 -1.43556,13.8867 -1.33064,1.54273 -5.25764,1.81835 -12.95115,1.81835 h -20.8632 c -0.94355,0 -1.71677,-0.77177 -1.71677,-1.76367 v -77.53696 h 13.66986 V 343.10492 Z M 398.0662,356.22225 c 21.80229,0 27.61323,26.23132 27.61323,41.71671 0,15.48539 -5.81094,41.71673 -27.61323,41.71673 -21.80309,0 -27.61324,-26.23134 -27.61324,-41.71673 0,-15.48539 5.81015,-41.71671 27.61324,-41.71671 z m -265.50539,5.0703 c -5.03627,0 -9.13279,4.07729 -9.13279,9.09178 0,5.01528 4.09652,9.09374 9.13279,9.09374 5.03545,0 9.13085,-4.07846 9.13085,-9.09374 0,-5.01449 -4.0954,-9.09178 -9.13085,-9.09178 z m 731.4948,0 c -5.03223,0 -9.1289,4.07729 -9.1289,9.09178 0,5.01528 4.09667,9.09374 9.1289,9.09374 5.0403,0 9.13674,-4.07846 9.13674,-9.09374 0,-5.01449 -4.09644,-9.09178 -9.13674,-9.09178 z m -371.52865,8.59568 c -0.88546,0 -1.71522,4.3e-4 -2.49022,0.38669 -1.88145,0.88146 -2.60009,2.92015 -2.04687,5.67578 0.33225,1.70806 1.82631,2.86523 3.98437,2.86523 h 8.79881 l 0.0548,0.0565 v -0.11129 h 8.7988 c 2.15806,-0.0548 3.92807,-0.77153 3.42968,-3.58204 -0.11048,-0.55081 0.0565,-1.10267 0.0565,-1.65428 0.22177,-2.36934 -0.60992,-3.41501 -3.43165,-3.47071 -5.69996,-0.16532 -11.45429,-0.16605 -17.15427,-0.16605 z m -0.55273,12.34568 c -0.16613,21.54747 -0.38742,42.92815 -0.55274,64.36513 h 5.25585 v -64.36513 z m 7.80271,0 -0.16604,0.16404 v 8.65232 c 0.16613,47.00778 0.22169,94.07091 0.16604,141.07787 0,0.55161 -0.22104,1.15653 0.16605,1.59766 1.99193,2.31451 4.25989,4.18902 7.46874,4.46484 1.05161,0.11048 1.66116,-0.27605 1.60546,-1.54296 -0.11048,-1.70887 0,-3.36226 0,-5.07032 0,-0.44111 -0.22015,-1.04771 0.38871,-1.15819 0.77419,-0.16533 0.66298,-0.77161 0.77347,-1.26758 0.3879,-1.92902 0.7758,-3.85681 1.55078,-5.95116 0.66371,2.09435 1.27199,3.85722 1.88086,5.67577 0.11048,0.44113 0.27669,0.82628 0.88475,0.77145 0.66452,-0.0548 0.88477,-0.38572 0.88477,-0.99219 0.0556,-1.15725 0.16686,-2.31359 0.27734,-3.416 0.27742,-2.81047 0.33266,-2.75503 3.09961,-3.30664 1.05161,-0.16532 1.5476,0.11072 1.82421,0.99219 0.49839,1.65322 1.4398,3.14184 2.10352,4.74022 0.49839,1.2121 1.27345,1.43164 2.43554,1.43164 4.37175,0.0548 8.74346,-0.16475 13.11521,-0.33008 2.76692,-0.11048 5.53288,-0.22137 8.35546,-0.38669 -0.60887,-5.62093 -1.38224,-11.0763 -2.21289,-16.69724 h -5.86522 c -0.775,-0.0548 -1.05274,0.2204 -1.05274,0.99219 0,1.54273 -0.11024,3.14184 -0.22073,4.74023 -0.22177,2.47978 -0.22145,2.42383 -2.82225,2.42383 -0.99597,0 -1.38285,-0.27468 -1.49414,-1.32227 -0.16613,-2.25887 -0.49879,-4.51932 -0.7754,-6.88866 -1.43871,-0.44113 -2.93312,-0.16557 -4.64843,-0.44137 v 6.77929 c 0,0.66129 0.0556,1.54323 -1.05079,1.32226 -0.77498,-0.16532 -1.99107,0.38532 -2.10154,-1.1582 -0.16613,-1.98385 -0.55557,-3.91261 -0.66605,-5.89648 -0.0557,-1.21208 -0.60758,-1.54296 -1.60352,-1.54296 -1.38306,-0.0548 -2.82289,-0.10911 -4.42773,-0.21879 0,-1.26775 0.11049,-2.42687 0,-3.52929 -0.11129,-1.04677 0.33234,-1.37584 1.27344,-1.48633 1.82579,-0.16532 3.59538,-0.49621 5.25586,-0.99219 v -7.27537 c 0,-0.44112 -0.22033,-1.04577 0.55467,-1.15624 0.71935,-0.11049 1.43774,-0.5504 2.26757,-0.2754 0.775,2.53546 0.83073,5.23554 1.38476,7.93552 1.54919,-0.49595 3.09868,-0.38572 4.3164,-0.99218 v -5.84178 c -0.0556,-2.36935 1.5e-4,-2.31363 2.1582,-2.86524 1.32822,-0.38548 1.88061,-0.0548 2.10156,1.32227 0.27742,2.15 0.77403,4.35455 1.21679,6.55858 1.99193,-0.33064 3.81974,-0.71749 5.70117,-0.88281 0.88548,-0.0548 1.05078,-0.38443 1.05078,-1.15625 v -11.7949 -3.80077 c -1.38306,-0.16532 -2.5459,0.11024 -3.65234,0.22072 -6.08706,0.55081 -12.17462,0.9916 -18.26168,1.87305 -0.88548,0.11048 -1.38355,0.49548 -1.66016,1.37694 -0.49758,1.70888 -1.27221,3.41778 -1.54882,5.23632 -0.0557,0.44113 -0.10976,1.15626 -0.88476,1.15626 h -3.1543 c -0.44274,0 -0.5546,-0.27468 -0.60935,-0.66016 -0.33226,-1.48789 -0.77507,-2.97694 -0.99609,-4.46484 -0.16613,-1.37742 -0.71951,-2.09401 -2.26953,-1.87304 -0.82983,0.10967 -1.7687,0 -2.82031,0 0.33226,-1.21289 -0.77652,-2.86646 0.77347,-3.25195 2.87741,-0.77177 3.32155,-2.59048 3.04493,-5.0703 v -1.65235 c 0,-2.53465 -10e-4,-2.5347 -2.38087,-3.36131 -0.88548,-0.33065 -1.16109,-0.71702 -1.21679,-1.70898 -0.16613,-1.65322 0.77532,-2.36858 2.10352,-2.69922 1.32822,-0.33064 1.60462,-1.04851 1.49414,-2.37109 -0.11129,-2.09354 -0.11129,-4.24338 0,-6.39256 0.0548,-1.32339 -0.16775,-2.14899 -1.66212,-2.36914 -1.43871,-0.22016 -2.04699,-1.1018 -1.88086,-2.64453 0.11049,-1.26774 0,-2.59049 0,-3.85741 0,-2.24112 1.05189,-3.63865 3.1543,-4.18945 0.0556,0 0.16605,-0.0548 0.16605,-0.0548 v -9.75388 c -0.60887,-0.11049 -1.10693,-0.33008 -1.66016,-0.33008 -1.21774,-0.0557 -1.60351,-0.60726 -1.60351,-1.87499 0.11048,-2.59032 0,-5.17922 0,-7.76953 0,-0.8266 0.27677,-1.15678 0.99609,-1.37694 2.43467,-0.82661 2.43359,-0.82751 2.43359,-3.47265 v -1.43359 c -3.43063,-1.10241 -3.26435,-1.10167 -3.42968,-3.36132 -0.16613,-1.81855 1.27161,-1.7631 2.26757,-2.09375 0.88548,-0.33065 1.16211,-0.77194 1.16211,-1.70899 -0.11048,-1.76369 -0.16613,-3.52744 0,-5.23632 0.16613,-1.70805 -0.38742,-2.69879 -2.10351,-2.97459 -1.10645,-0.22016 -1.32617,-0.82628 -1.32617,-1.87305 v -20.39059 c 0,-0.49597 0.1654,-1.10168 -0.16605,-1.59766 z m -7.69334,68.22449 c -0.49837,0 -0.71878,0.21887 -0.71878,0.71484 v 5.45702 h 5.20117 v -6.17186 z m -0.77345,10.24998 v 0.0548 1.54296 46.73234 c 0,3.63708 0.49846,7.21949 1.27342,10.74608 0.71936,3.08627 1.82452,6.06144 3.92774,8.9824 v -68.05847 z m -242.65192,19.28709 c -5.03625,0 -9.13085,4.07843 -9.13085,9.09372 0,5.01449 4.0946,9.09178 9.13085,9.09178 5.03546,0 9.12889,-4.07729 9.12889,-9.09178 0,-5.01529 -4.09343,-9.09372 -9.12889,-9.09372 z m 502.40533,0 c -5.04029,0 -9.13664,4.07843 -9.13664,9.09372 0,5.01449 4.09635,9.09178 9.13664,9.09178 5.03224,0 9.12892,-4.07729 9.12892,-9.09178 0,-5.01529 -4.09668,-9.09372 -9.12892,-9.09372 z m -235.84917,16.25778 c 1.60484,0.0556 2.93362,0.38629 4.0957,1.21289 1.49434,1.04676 1.49434,2.36827 0,3.47069 -1.05161,0.77096 -2.32385,1.10226 -3.87304,1.26758 0.49839,-1.98386 0.55234,-3.91166 -0.22266,-5.95116 z m -2.15819,0.10935 c -0.27662,1.92903 -0.55315,3.80309 0.11137,5.8418 h -0.0548 c -1.49435,-0.16533 -2.76675,-0.44113 -3.81836,-1.21289 -1.49353,-1.04678 -1.49353,-2.42394 0,-3.4707 1.10725,-0.77177 2.26817,-1.15821 3.76171,-1.15821 z" />
</svg>
